<?xml version="1.0" standalone="no"?><!DOCTYPE svg PUBLIC "-//W3C//DTD SVG 1.1//EN" "http://www.w3.org/Graphics/SVG/1.1/DTD/svg11.dtd"><svg t="1743955747933" class="icon" viewBox="0 0 1198 1024" version="1.1" xmlns="http://www.w3.org/2000/svg" p-id="13919" xmlns:xlink="http://www.w3.org/1999/xlink" width="233.984375" height="200"><path d="M1167.859512 27.223415h-230.674732a71.480195 71.480195 0 0 0-71.68 71.68v814.404683a71.505171 71.505171 0 0 0 71.68 71.68h230.649757a14.460878 14.460878 0 0 0 14.336-14.336v-59.916488a14.460878 14.460878 0 0 0-14.336-14.336h-157.696a11.638634 11.638634 0 0 1-11.638635-11.763512v-36.464391a11.66361 11.66361 0 0 1 11.638635-11.738536h156.422243a15.859512 15.859512 0 0 0 15.609757-15.609756v-30.020683a15.859512 15.859512 0 0 0-15.609757-15.609756h-156.422243a11.638634 11.638634 0 0 1-11.638635-11.738537V728.28878a11.66361 11.66361 0 0 1 11.638635-11.738536h156.422243a15.010341 15.010341 0 0 0 15.609757-15.609756v-29.995708a15.859512 15.859512 0 0 0-15.609757-15.634731h-156.422243a11.638634 11.638634 0 0 1-11.638635-11.713561v-36.539317a11.688585 11.688585 0 0 1 11.638635-11.638634h156.422243a15.834537 15.834537 0 0 0 15.609757-15.734635v-29.895804a15.859512 15.859512 0 0 0-15.609757-15.684683h-156.422243a11.638634 11.638634 0 0 1-11.638635-11.66361v-36.539317a11.66361 11.66361 0 0 1 11.638635-11.713561h156.422243a15.834537 15.834537 0 0 0 15.609757-15.659707v-29.970732a15.859512 15.859512 0 0 0-15.609757-15.609756h-156.422243a11.638634 11.638634 0 0 1-11.638635-11.738537v-37.788097a11.66361 11.66361 0 0 1 11.638635-11.738537h156.422243a15.834537 15.834537 0 0 0 15.609757-15.659707v-29.970732a15.859512 15.859512 0 0 0-15.609757-15.609756h-156.422243a11.638634 11.638634 0 0 1-11.638635-11.713561V240.914732a11.66361 11.66361 0 0 1 11.638635-11.738537h156.422243a15.859512 15.859512 0 0 0 15.609757-15.58478V183.570732a15.859512 15.859512 0 0 0-15.609757-15.609756h-156.422243a11.638634 11.638634 0 0 1-11.638635-11.738537V118.434341a11.66361 11.66361 0 0 1 11.638635-11.713561h157.696a14.460878 14.460878 0 0 0 14.336-14.336V40.260683c0-6.518634-6.518634-13.037268-14.336-13.037268zM191.812683 5.070049c-20.854634 41.659317-74.277463 178.500683 6.54361 314.043317l118.584195 199.380293 109.443122-143.36L206.098732 3.796293c-3.846244-5.244878-11.638634-5.244878-14.261073 1.24878zM640.124878 734.782439l-82.119805-136.841366-18.232195 24.775805a232.522927 232.522927 0 0 1-58.642732 54.696585c33.866927 7.842341 65.161366 26.074537 82.119805 57.368976l19.530927 33.866927a142.360976 142.360976 0 0 0 110.741854 245.934829A142.336 142.336 0 0 0 801.717073 799.96878a138.714537 138.714537 0 0 0-161.592195-65.186341z m76.924878 198.056585c-33.916878 19.555902-78.22361 9.116098-97.804488-24.725853-19.505951-33.941854-9.091122-78.22361 24.775805-97.754537 33.866927-19.580878 78.198634-9.141073 97.729561 24.775805a71.929756 71.929756 0 0 1-24.775805 97.729561h0.074927z" fill="#0065FF" p-id="13920"></path><path d="M511.075902 599.26478l27.373269-35.140682 164.164683-215.04c95.157073-125.127805 58.642732-265.815415 43.008-310.147122-2.622439-6.54361-10.414829-7.817366-14.336-2.572488L445.914537 409.050537 215.26478 711.305366c-58.642732-24.775805-128.974049-9.091122-169.359609 44.281756-48.252878 62.588878-35.21561 151.227317 27.398244 199.430244a142.610732 142.610732 0 0 0 199.305365-26.049561 141.287024 141.287024 0 0 0-5.244878-178.57561l23.477074-31.294439c22.153366-28.597073 56.070244-44.281756 92.534634-46.854244 6.54361 0 13.062244-1.323707 18.232195-2.622439 10.364878-1.64839 20.455024-4.745366 29.970732-9.141073a184.71961 184.71961 0 0 0 79.497365-61.190244v-0.049951z m-294.462439 286.72c-23.502049 31.219512-69.082537 36.46439-100.376975 12.987318a70.955707 70.955707 0 0 1-13.037268-100.302049 70.930732 70.930732 0 0 1 100.352-13.037269c29.945756 23.427122 36.46439 69.057561 13.037268 100.352z m241.014635-316.690731a35.265561 35.265561 0 0 1-49.526635-13.037269c-10.389854-16.908488-3.846244-39.061854 13.037269-49.551609 16.983415-10.364878 39.111805-3.846244 49.551609 13.062244 9.141073 18.232195 3.896195 40.460488-13.062243 49.526634z" fill="#0065FF" p-id="13921"></path></svg>